Format : AVI
Format/Info : Audio Video Interleave
File size : 823 MiB
Duration : 1h 34mn
Overall bit rate : 1 221 Kbps
Writing application : VirtualDubMod 1.5.10.3 | www.virtualdub-fr.org || (build 2550/release)
Writing library : VirtualDubMod build 2550/release

Video
ID : 0
Format : MPEG-4 Visual
Format profile : Advanced Simple@L5
Format settings, BVOP : 2
Format settings, QPel : No
Format settings, GMC : No warppoints
Format settings, Matrix : Default (H.263)
Muxing mode : Packed bitstream
Codec ID : XVID
Codec ID/Hint : XviD
Duration : 1h 34mn
Bit rate : 1 084 Kbps
Width : 672 pixels
Height : 288 pixels
Display aspect ratio : 2.35:1
Frame rate : 23.976 fps
Color space : YUV
Chroma subsampling : 4:2:0
Bit depth : 8 bits
Scan type : Progressive
Compression mode : Lossy
Bits/(Pixel*Frame) : 0.234
Stream size : 730 MiB (89%)
Writing library : XviD 63

Audio
ID : 1
Format : MPEG Audio
Format version : Version 1
Format profile : Layer 3
Mode : Joint stereo
Mode extension : MS Stereo
Codec ID : 55
Codec ID/Hint : MP3
Duration : 1h 34mn
Bit rate mode : Constant
Bit rate : 128 Kbps
Channel(s) : 2 channels
Sampling rate : 48.0 KHz
Compression mode : Lossy
Stream size : 86.3 MiB (10%)
Alignment : Split accross interleaves
Interleave, duration : 42 ms (1.00 video frame)
Interleave, preload duration : 500 ms
Writing library : LAME3.97



 
http://www.imdb.com/title/tt1396221/







Users: 4.8/10 (295 votes) 5 reviews | Critics: 10 reviews Metascore: 22/100 (based on 11 reviews from Metacritic.com)

An angel under the thumb of a ruthless gangster is saved by a trumpet player down on his luck.
Director:
Mitch Glazer
Writer:
Mitch Glazer (screenplay)
Stars:
Mickey Rourke, Megan Fox and Bill Murray
















Source Used

Passion Play 2011 BluRay 720p DTS x264-CHD .....Thanks

Small sized brrip ....good quality though



Greetz to IMAGiNE,Flawl3ss,DiLLoN,BDK,NOiR,TOXiCiNK,THC,Ez,Rx,Boobyblue,TaRiQ786,LKRG,CrEwSaDe